HIERARCHY
ROOT Hips
{
	OFFSET 0.000000 0.000000 0.000000 
	CHANNELS 6 Xposition Yposition Zposition Zrotation Yrotation Xrotation
	JOINT LeftUpLeg
	{
		OFFSET 1.363060 -1.794630 0.839290 
		CHANNELS 3 Zrotation Yrotation Xrotation
		JOINT LeftLeg
		{
			OFFSET 2.448110 -6.726130 0.000000 
			CHANNELS 3 Zrotation Yrotation Xrotation
			JOINT LeftFoot
			{
				OFFSET 2.562200 -7.039590 0.000000 
				CHANNELS 3 Zrotation Yrotation Xrotation
				JOINT LeftToeBase
				{
					OFFSET 0.157640 -0.433110 2.322550 
					CHANNELS 3 Zrotation Yrotation Xrotation
					End Site
					{
						OFFSET 0.000000 0.000000 0.000000 
					}
				}
			}
		}
	}
	JOINT RightUpLeg
	{
		OFFSET -1.305520 -1.794630 0.839290 
		CHANNELS 3 Zrotation Yrotation Xrotation
		JOINT RightLeg
		{
			OFFSET -2.542530 -6.985550 0.000000 
			CHANNELS 3 Zrotation Yrotation Xrotation
			JOINT RightFoot
			{
				OFFSET -2.568260 -7.056230 0.000000 
				CHANNELS 3 Zrotation Yrotation Xrotation
				JOINT RightToeBase
				{
					OFFSET -0.164730 -0.452590 2.363150 
					CHANNELS 3 Zrotation Yrotation Xrotation
					End Site
					{
						OFFSET 0.000000 0.000000 0.000000 
					}
				}
			}
		}
	}
	JOINT Spine
	{
		OFFSET 0.028270 2.035590 -0.193380 
		CHANNELS 3 Zrotation Yrotation Xrotation
		JOINT Spine1
		{
			OFFSET 0.056720 2.048850 -0.042750 
			CHANNELS 3 Zrotation Yrotation Xrotation
			JOINT Neck1
			{
				OFFSET -0.054170 1.746240 0.172020 
				CHANNELS 3 Zrotation Yrotation Xrotation
				JOINT Head
				{
					OFFSET 0.104070 1.761360 -0.123970 
					CHANNELS 3 Zrotation Yrotation Xrotation
					End Site
					{
						OFFSET 0.000000 0.000000 0.000000 
					}
				}
			}
			JOINT LeftArm
			{
				OFFSET 3.362410 1.200890 -0.311210 
				CHANNELS 3 Zrotation Yrotation Xrotation
				JOINT LeftForeArm
				{
					OFFSET 4.983000 -0.000000 -0.000000 
					CHANNELS 3 Zrotation Yrotation Xrotation
					JOINT LeftHand
					{
						OFFSET 3.483560 -0.000000 -0.000000 
						CHANNELS 3 Zrotation Yrotation Xrotation
						JOINT LeftHandIndex1
						{
							OFFSET 0.715260 -0.000000 -0.000000 
							CHANNELS 3 Zrotation Yrotation Xrotation
							End Site
							{
								OFFSET 0.000000 0.000000 0.000000 
							}
						}
					}
				}
			}
			JOINT RightArm
			{
				OFFSET -3.136600 1.374050 -0.404650 
				CHANNELS 3 Zrotation Yrotation Xrotation
				JOINT RightForeArm
				{
					OFFSET -5.241900 -0.000000 -0.000000 
					CHANNELS 3 Zrotation Yrotation Xrotation
					JOINT RightHand
					{
						OFFSET -3.444170 -0.000000 -0.000000 
						CHANNELS 3 Zrotation Yrotation Xrotation
						JOINT RightHandIndex1
						{
							OFFSET -0.622530 -0.000000 -0.000000 
							CHANNELS 3 Zrotation Yrotation Xrotation
							End Site
							{
								OFFSET 0.000000 0.000000 0.000000 
							}
						}
					}
				}
			}
		}
	}
}
MOTION
Frames: 18
Frame Time: 0.041667
15.883861 18.818333 19.578118 -179.126820 -2.905203 -149.155652 -59.154472 -29.110695 -15.913501 6.263966 4.465273 13.150213 -1.032945 -16.882524 -44.421531 1.257000 -7.107400 -20.034000 67.145060 25.263394 -12.821150 -6.170521 -3.101139 8.784850 -1.835930 12.674943 -46.838636 -0.630500 5.080900 -14.139400 9.243945 0.595195 -4.409521 -2.321032 -1.223201 22.624162 11.730354 -5.401967 5.525482 0.803900 -2.432600 3.245600 -111.063122 -11.311747 24.968139 19.799469 -18.580133 -2.280980 0.678408 -0.173134 2.005986 -7.125000 0.000000 0.000000 104.315581 3.635958 3.923231 -20.938625 28.177815 -3.299109 -0.743737 -4.578487 1.118928 7.125000 0.000000 0.000000 
15.883669 18.819099 19.575629 -179.155782 -2.843246 -149.178606 -59.192452 -29.053782 -15.880962 6.261734 4.470201 13.149375 -0.987509 -16.805439 -44.446125 1.313300 -7.258900 -20.484700 67.127608 25.244722 -12.780307 -6.176426 -3.107058 8.791454 -1.842219 12.602482 -46.745781 -0.561700 4.800600 -13.340600 9.277304 0.531159 -4.257636 -2.570175 -1.274355 21.976017 13.305902 -6.267092 10.631433 0.949200 -2.417000 3.994500 -111.043294 -10.990449 24.948384 19.812252 -18.510080 -2.281785 0.682627 -0.170876 1.998744 -7.125000 0.000000 0.000000 104.303107 3.504627 3.821150 -20.934768 28.161490 -3.294614 -0.749984 -4.559712 1.098269 7.125000 0.000000 0.000000 
15.882808 18.819578 19.574479 -179.242823 -2.779962 -149.185004 -59.286961 -28.967478 -15.810452 6.255891 4.449425 13.097737 -0.972082 -16.805607 -44.462400 1.355700 -7.370400 -20.817500 67.071220 25.219436 -12.779136 -6.189768 -3.129275 8.870270 -1.869352 12.554048 -46.802618 -0.606000 4.982800 -13.859400 8.871338 0.481654 -4.429455 -2.300693 -1.332334 21.848024 11.857521 -6.891664 12.567953 0.661000 -2.650100 4.212700 -111.037298 -10.900517 24.828998 19.813597 -18.406132 -2.270066 0.680961 -0.175969 2.098694 -7.125000 0.000000 0.000000 104.248992 3.398447 4.123896 -21.193821 28.489898 -3.375034 -0.718093 -4.625490 0.840596 7.125000 0.000000 0.000000 
15.882616 18.819386 19.574479 -179.279296 -2.782888 -149.266420 -59.290538 -28.938511 -15.762672 6.257985 4.442981 13.105759 -1.007894 -16.882355 -44.450912 1.296100 -7.212900 -20.347800 67.053679 25.294754 -12.787656 -6.180993 -3.177121 8.989117 -1.953875 12.401024 -46.955312 -0.689800 5.309500 -14.793500 8.526150 0.449613 -3.901527 -2.193252 -1.308666 21.706602 12.097624 -6.286415 10.915040 0.731200 -2.445000 4.080600 -110.982449 -10.927633 24.667865 19.887615 -18.580800 -2.293791 0.669164 -0.182677 2.314795 -7.125000 0.000000 0.000000 104.328685 3.472877 3.955189 -21.109229 28.456598 -3.359276 -0.743857 -4.560976 0.971932 7.125000 0.000000 0.000000 
15.882329 18.819003 19.573330 -179.186310 -2.749265 -149.170761 -59.257639 -28.886766 -15.787419 6.269846 4.437201 13.098422 -1.045701 -16.929771 -44.402083 1.223700 -7.016300 -19.763600 67.065076 25.467853 -12.874957 -6.163656 -3.210505 9.080315 -2.001855 12.314501 -47.034604 -0.695400 5.330800 -14.854400 8.956359 0.422093 -4.602676 -2.234310 -1.389418 21.520595 9.910633 -7.376669 14.725084 0.281200 -2.842900 4.520300 -111.022166 -10.608408 24.763701 19.924583 -18.513480 -2.305339 0.676087 -0.162559 2.067496 -7.125000 0.000000 0.000000 104.244381 3.316977 3.995275 -21.112342 28.452932 -3.367678 -0.755669 -4.571477 1.053312 7.125000 0.000000 0.000000 
15.880892 18.820727 19.570170 -179.135005 -2.738911 -149.476774 -59.330421 -28.729986 -15.442884 6.282889 4.395608 12.993346 -0.911679 -16.738364 -44.473324 1.221400 -7.009800 -19.744500 67.158430 25.327615 -12.589155 -6.155840 -3.179213 9.084243 -1.982170 12.441926 -47.038814 -0.688300 5.303800 -14.777200 9.068363 0.425804 -3.819962 -2.346293 -1.313465 21.454158 11.486757 -6.581146 12.097751 0.601300 -2.533200 4.228400 -110.942520 -10.720251 25.004453 19.896485 -18.561412 -2.305507 0.673088 -0.157966 1.866276 -7.125000 0.000000 0.000000 104.290009 3.391179 4.061593 -21.182401 28.569850 -3.385301 -0.777809 -4.552987 0.911872 7.125000 0.000000 0.000000 
15.882999 18.818908 19.571128 -179.050629 -2.679777 -149.179896 -59.198865 -28.803714 -15.735216 6.287570 4.422246 13.022396 -0.925874 -16.746316 -44.527075 1.284900 -7.183000 -20.258800 67.098826 25.701854 -12.941813 -6.135887 -3.234697 9.175957 -1.954325 12.427728 -47.032777 -0.681700 5.278900 -14.705900 9.542492 0.468126 -4.419902 -2.483797 -1.343315 21.701679 11.505121 -6.648159 12.245768 0.614900 -2.559800 4.232400 -110.995326 -10.701225 24.785327 19.843675 -18.474524 -2.284387 0.675131 -0.158789 1.964448 -7.125000 0.000000 0.000000 104.278392 3.340069 4.261390 -21.312850 28.713937 -3.433902 -0.766682 -4.546291 0.764303 7.125000 0.000000 0.000000 
15.882903 18.820631 19.571223 -179.137364 -2.664852 -149.014779 -59.172329 -28.906556 -15.888999 6.277658 4.437686 13.044999 -0.935321 -16.764679 -44.557152 1.329400 -7.301400 -20.611500 66.980743 25.976020 -13.177141 -6.134697 -3.304308 9.275791 -2.032536 12.169171 -47.082470 -0.674700 5.252500 -14.630200 9.021930 0.435120 -4.592029 -2.310244 -1.375324 21.810728 11.478561 -6.734016 12.424605 0.593700 -2.590400 4.247000 -110.983796 -10.746666 24.545994 19.785844 -18.339176 -2.253464 0.676678 -0.164491 2.192105 -7.125000 0.000000 0.000000 104.318830 3.366359 4.305512 -21.424759 28.867841 -3.479775 -0.730830 -4.540001 0.496606 7.125000 0.000000 0.000000 
15.880605 18.818812 19.568542 -179.194598 -2.583372 -148.773087 -59.199838 -28.963294 -16.028513 6.265667 4.440583 12.993374 -0.903859 -16.690860 -44.558715 1.365400 -7.395600 -20.892900 66.793979 26.378539 -13.527071 -6.139011 -3.377657 9.434854 -2.035614 12.114714 -47.177781 -0.674000 5.249800 -14.622500 8.892162 0.460373 -4.983620 -2.289496 -1.394544 22.047069 11.987026 -6.776422 12.279364 0.675600 -2.599500 4.219800 -111.013068 -10.761533 24.375559 19.707602 -18.197762 -2.222281 0.680409 -0.165324 2.410040 -7.125000 0.000000 0.000000 104.301352 3.416765 4.114646 -21.604997 29.084067 -3.540067 -0.641206 -4.568436 0.252359 7.125000 0.000000 0.000000 
15.877828 18.816801 19.564424 -179.269110 -2.523710 -148.761459 -59.309266 -28.885260 -15.973173 6.257026 4.417668 12.906946 -0.889613 -16.661042 -44.522330 1.384900 -7.446200 -21.044200 66.721317 26.414222 -13.533783 -6.158134 -3.340712 9.383014 -1.948637 12.355986 -47.190450 -0.650700 5.159800 -14.364900 8.669791 0.421893 -4.735232 -2.179593 -1.416305 22.039661 11.866943 -7.052839 12.758331 0.625400 -2.707800 4.280700 -111.012201 -10.782140 24.393472 19.643814 -18.067042 -2.197634 0.683201 -0.164814 2.469812 -7.125000 0.000000 0.000000 104.322495 3.433734 4.204649 -21.553502 29.044107 -3.537100 -0.715694 -4.520999 0.566303 7.125000 0.000000 0.000000 
15.876487 18.819291 19.563084 -179.266791 -2.488853 -148.963421 -59.417153 -28.775900 -15.771106 6.253600 4.386294 12.843527 -0.881304 -16.677408 -44.521326 1.348000 -7.350300 -20.757500 66.760988 26.175363 -13.295482 -6.175463 -3.287597 9.286059 -1.937816 12.427425 -47.157920 -0.646000 5.141500 -14.312600 9.031560 0.299652 -4.085494 -2.208164 -1.456684 21.721968 10.844420 -7.372842 13.880884 0.444300 -2.843600 4.439400 -111.074146 -10.750707 24.277136 19.594852 -17.992760 -2.179964 0.684751 -0.167447 2.474964 -7.125000 0.000000 0.000000 104.229480 3.500008 4.537314 -21.630797 29.174779 -3.563061 -0.724334 -4.528483 0.396644 7.125000 0.000000 0.000000 
15.875530 18.822259 19.561551 -179.255209 -2.466673 -149.175280 -59.488629 -28.621571 -15.551261 6.258584 4.364892 12.833161 -0.853777 -16.681629 -44.573017 1.413700 -7.519900 -21.265100 66.816358 25.992784 -13.087351 -6.178149 -3.283441 9.301303 -1.997674 12.323643 -47.173700 -0.675800 5.256500 -14.641700 9.070006 0.244448 -3.711732 -2.174175 -1.464273 21.481262 10.157072 -7.476464 14.508500 0.326300 -2.892700 4.523600 -111.094231 -10.736353 24.137495 19.494694 -17.813615 -2.141074 0.686133 -0.178606 2.613411 -7.125000 0.000000 0.000000 104.184837 3.518996 4.700320 -21.660325 29.234484 -3.575182 -0.715742 -4.522425 0.115647 7.125000 0.000000 0.000000 
15.876391 18.818525 19.561743 -179.155346 -2.378134 -148.782273 -59.272380 -28.741294 -15.996773 6.268132 4.418272 12.938970 -0.940494 -16.782332 -44.570201 1.389400 -7.457700 -21.078700 66.709798 26.502534 -13.636179 -6.146898 -3.381113 9.520693 -1.895143 12.457445 -47.185312 -0.716100 5.408000 -15.076000 9.314893 0.341157 -4.312317 -2.249467 -1.462318 21.812101 10.395106 -7.291905 13.858199 0.388500 -2.829400 4.444400 -111.106572 -10.806552 23.939681 19.385974 -17.634793 -2.099760 0.683904 -0.184487 2.681961 -7.125000 0.000000 0.000000 104.187414 3.460793 4.787457 -21.743849 29.317826 -3.609574 -0.694833 -4.507512 -0.083974 7.125000 0.000000 0.000000 
15.876200 18.818333 19.561264 -179.097998 -2.348757 -148.726209 -59.205855 -28.791472 -16.071787 6.274556 4.421821 12.936920 -0.977637 -16.817294 -44.521203 1.240200 -7.061700 -19.898200 66.715207 26.578280 -13.712380 -6.138511 -3.380048 9.534186 -1.825542 12.604464 -47.147805 -0.709400 5.383100 -15.004500 9.581539 0.354476 -4.304882 -2.331598 -1.454205 21.887400 10.754729 -7.170454 13.132622 0.459000 -2.796400 4.361400 -111.104604 -10.797820 23.924816 19.347548 -17.594776 -2.088987 0.681132 -0.172404 2.527908 -7.125000 0.000000 0.000000 104.176037 3.361162 5.040725 -22.005387 29.642612 -3.699763 -0.669552 -4.525000 -0.254436 7.125000 0.000000 0.000000 
15.875625 18.819674 19.560306 -179.099669 -2.399011 -148.863747 -59.227601 -28.762677 -15.963378 6.276410 4.414796 12.952138 -1.004817 -16.871483 -44.492307 1.171900 -6.871500 -19.335200 66.784505 26.407111 -13.505362 -6.142942 -3.335954 9.404465 -1.871533 12.518672 -47.111399 -0.655200 5.177300 -14.414900 9.636303 0.301540 -3.960518 -2.347979 -1.451953 21.813308 11.096992 -6.924560 12.314610 0.531000 -2.709100 4.274200 -111.092908 -10.727877 24.025658 19.317621 -17.565645 -2.083965 0.686319 -0.165629 2.462725 -7.125000 0.000000 0.000000 104.156962 3.323506 5.319849 -22.234012 29.937020 -3.776105 -0.645128 -4.547338 -0.415393 7.125000 0.000000 0.000000 
15.875051 18.819674 19.560211 -179.087971 -2.380411 -148.860169 -59.229257 -28.777299 -15.992481 6.270243 4.430942 12.998451 -0.990866 -16.861335 -44.539601 1.177600 -6.887500 -19.382400 66.774703 26.370054 -13.505191 -6.149900 -3.324123 9.350658 -1.872840 12.490683 -47.072348 -0.661900 5.203200 -14.488900 9.881562 0.315492 -3.931589 -2.419399 -1.442132 21.885662 11.753393 -6.361943 10.867623 0.688100 -2.498900 4.112800 -111.133212 -10.700046 23.978450 19.232097 -17.468799 -2.059766 0.690144 -0.172520 2.532161 -7.125000 0.000000 0.000000 104.138181 3.373868 5.396454 -22.165236 29.858195 -3.758755 -0.645248 -4.502776 -0.567819 7.125000 0.000000 0.000000 
15.874285 18.818812 19.558583 -179.108012 -2.322053 -148.879029 -59.309704 -28.649078 -15.940747 6.267406 4.419993 12.963383 -0.983499 -16.852514 -44.526421 1.252900 -7.096400 -20.001400 66.717450 26.447967 -13.543276 -6.157903 -3.320965 9.350112 -1.837251 12.565827 -47.066899 -0.708300 5.378900 -14.992400 9.957278 0.321368 -3.699649 -2.414026 -1.423359 22.008458 12.730244 -5.415352 8.357326 0.907100 -2.170700 3.834300 -111.182840 -10.773265 23.772747 19.119951 -17.353066 -2.023321 0.686046 -0.177985 2.699970 -7.125000 0.000000 0.000000 104.137137 3.497700 5.513788 -22.171040 29.878218 -3.752910 -0.647781 -4.519606 -0.510269 7.125000 0.000000 0.000000 
15.873135 18.817471 19.554944 -179.084403 -2.281012 -148.955430 -59.368210 -28.468618 -15.790469 6.278855 4.389967 12.892996 -0.963514 -16.825214 -44.508067 1.336300 -7.319700 -20.666200 66.746822 26.525946 -13.470266 -6.146613 -3.318797 9.367364 -1.858883 12.556913 -47.101910 -0.705500 5.368600 -14.962900 9.904539 0.210388 -3.543941 -2.444322 -1.476466 21.839416 12.012605 -6.711804 11.294182 0.694200 -2.632800 4.146400 -111.188682 -10.650200 23.512541 19.068685 -17.195814 -1.999047 0.692894 -0.169359 2.829214 -7.125000 0.000000 0.000000 104.140007 3.477859 5.711666 -22.239790 29.957771 -3.781433 -0.650460 -4.530551 -0.588324 7.125000 0.000000 0.000000 
